<?xml version="1.0" encoding="utf-8"?>
<!-- Generator: Adobe Illustrator 15.1.0, SVG Export Plug-In . SVG Version: 6.00 Build 0)  -->
<!DOCTYPE svg PUBLIC "-//W3C//DTD SVG 1.1//EN" "http://www.w3.org/Graphics/SVG/1.1/DTD/svg11.dtd">
<svg version="1.1" id="ar" xmlns="http://www.w3.org/2000/svg" xmlns:xlink="http://www.w3.org/1999/xlink" x="0px" y="0px"
	 width="318.5px" height="175px" viewBox="-75.5 -45 318.5 175" enable-background="new -75.5 -45 318.5 175" xml:space="preserve">
<g>
	<polygon fill="#FFFFFF" points="30.718,79.811 55.158,79.811 55.158,76.559 30.718,76.559 30.718,58.301 58.604,58.301 
		58.604,55.045 27.457,55.045 27.457,102.341 59.18,102.341 59.18,99.089 30.718,99.089 	"/>
	<polygon fill="#FFFFFF" points="98.648,55.045 81.637,76.397 64.626,55.045 60.435,55.045 79.536,79.013 60.94,102.341 
		65.134,102.341 81.637,81.622 98.135,102.341 102.264,102.341 83.67,79.013 102.778,55.045 	"/>
	<path fill="#FFFFFF" d="M124.293,55.045h-19.434v47.296h3.26v-17.81h16.625c3.738,0,7.169-1.623,9.67-4.585
		c2.314-2.741,3.64-6.452,3.64-10.19c0-3.594-1.405-7.254-3.854-10.048C131.564,56.699,128.048,55.045,124.293,55.045z
		 M124.744,81.277h-16.625V58.301h16.174c5.596,0,10.502,5.353,10.502,11.453C134.795,75.418,131.037,81.277,124.744,81.277z"/>
	<path fill="#FFFFFF" d="M175.569,41.224c-19.13,0-35.298,16.13-35.298,35.213c0,8.723,3.583,17.485,9.824,24.018
		c6.636,6.952,15.68,10.879,25.474,11.065l0,0h0.009c19.467-0.39,35.298-16.126,35.298-35.08
		C210.88,59.432,196.689,41.224,175.569,41.224z M175.569,108.216c-19.038,0-31.096-16.165-31.762-31.774
		c0-19.086,16.427-31.91,31.762-31.91c17.226,0,31.773,14.616,31.773,31.91C207.343,91.784,194.576,108.216,175.569,108.216z"/>
	<path fill="#18C1E8" d="M-28.503,49.29c0.47,0,0.889-0.284,1.064-0.723l5.709-14.407h32.349l5.565,13.811
		c0,0,0.483,1.319,1.838,1.319h11.483c0,0,1.386-0.073,0.831-1.376L-0.415-26.169c-0.589-1.421-2.18-0.587-2.18-0.587l-8.502,3.52
		c-1.252,0.551-1.556,1.73-1.556,1.73l-29.114,69.954c-0.281,0.847,0.558,0.843,0.558,0.843H-28.503 M6.361,23.566h-23.838
		L-5.558-5.613L6.361,23.566z"/>
	<path fill="#18C1E8" d="M84.213,24.658c0.121-1.793,0.177-3.493,0.177-3.51c0-15.589-11.043-26.931-26.327-26.931
		c-16.459,0-27.853,11.583-27.853,28.165v0.42c0,16.468,11.261,27.533,28.169,27.533c8.882,0,15.792-2.826,21.776-8.888
		c0,0,0.752-0.721,0.162-1.313l-6.928-6.715c-0.451-0.446-1.008,0.257-1.008,0.257c-3.127,2.881-6.933,5.608-13.675,5.608
		c-9.105,0-15.285-5.126-15.79-13.451h40.068C82.981,25.833,84.133,25.866,84.213,24.658z M44.562,16.755
		c-0.712,0-1.268-0.653-1.117-1.35c1.311-6.036,7.375-9.844,14.519-9.844c6.678,0,12.21,4.437,13.055,9.921
		c0.103,0.671-0.445,1.273-1.127,1.273H44.562z"/>
	<path fill="#18C1E8" d="M121.756-4.209V6.762c0,0.884-0.795,0.603-0.795,0.603c-1.316-0.235-2.648-0.359-4.159-0.359
		c-8.706,0-13.962,5.368-13.962,14.012v26.761c0,0.834-0.675,1.513-1.51,1.513h-9.836c-0.837,0-1.516-0.679-1.516-1.513V-2.918
		c0-0.834,0.679-1.511,1.516-1.511h9.836c0.835,0,1.51,0.676,1.51,1.511v5.876c2.271-5.228,8.385-8.323,15.436-8.323
		c0.873,0,1.873,0.087,2.624,0.176C120.897-5.188,121.756-5.06,121.756-4.209z"/>
	<path fill="#18C1E8" d="M151.246-5.89c-16.321,0-29.113,12.417-29.113,28.271c0,14.377,10.523,25.922,24.657,27.947
		c0.243,0.036,0.489-0.054,0.658-0.23c7.503-7.9,18.003-12.493,28.121-12.493c0.111,0,0.218,0.006,0.324,0.008
		c2.832-4.369,4.462-9.579,4.462-15.231C180.357,6.527,167.57-5.89,151.246-5.89z M151.246,38.809
		c-9.244,0-16.217-7.062-16.217-16.428c0-9.367,6.971-16.429,16.217-16.429c9.094,0,16.217,7.216,16.217,16.429
		C167.463,31.594,160.34,38.809,151.246,38.809z"/>
</g>
</svg>
