<?xml version="1.0" encoding="utf-8"?>
<!-- Generator: Adobe Illustrator 15.1.0, SVG Export Plug-In . SVG Version: 6.00 Build 0)  -->
<!DOCTYPE svg PUBLIC "-//W3C//DTD SVG 1.1//EN" "http://www.w3.org/Graphics/SVG/1.1/DTD/svg11.dtd">
<svg version="1.1" id="me" xmlns="http://www.w3.org/2000/svg" xmlns:xlink="http://www.w3.org/1999/xlink" x="0px" y="0px"
	 width="318.5px" height="175px" viewBox="-75.5 -45 318.5 175" enable-background="new -75.5 -45 318.5 175" xml:space="preserve">
<g>
	<g id="Calque_1_1_">
		<g>
			<path fill="#FFFFFF" d="M119.707-22.906l-9.282,1.304c-0.571,0.076-0.987,0.562-0.987,1.129v8.066
				c0,0.635,0.513,1.146,1.139,1.146h9.289c0.629,0,1.146-0.512,1.146-1.146v-9.368c0-0.331-0.146-0.645-0.397-0.862
				C120.364-22.857,120.033-22.953,119.707-22.906z"/>
			<path fill="#FFFFFF" d="M43.8,1.998c-2.226-2.418-4.948-4.29-8.081-5.572c-3.126-1.267-6.663-1.911-10.499-1.911
				c-3.682,0-7.112,0.644-10.197,1.911C11.943-2.29,9.244-0.405,6.99,2.034c-2.246,2.452-4.005,5.459-5.226,8.94
				c-1.236,3.467-1.854,7.441-1.854,11.802c0,4.474,0.64,8.495,1.887,11.958c1.27,3.519,3.086,6.519,5.401,8.921
				c2.324,2.415,5.136,4.284,8.374,5.553c3.218,1.267,6.826,1.911,10.713,1.911c2.898,0,5.728-0.382,8.407-1.141
				c2.652-0.759,5.048-1.895,7.118-3.365c2.069-1.48,3.813-3.365,5.187-5.608c1.371-2.226,2.253-4.831,2.635-7.745
				c0.043-0.327-0.056-0.659-0.272-0.906c-0.219-0.247-0.528-0.388-0.858-0.388h-9.284c-0.6,0-1.1,0.471-1.137,1.07
				c-0.095,1.389-0.474,2.631-1.124,3.694c-0.665,1.074-1.539,1.987-2.599,2.715c-1.112,0.758-2.355,1.322-3.705,1.669
				c-3.316,0.86-6.846,0.703-9.827-0.394c-1.667-0.606-3.16-1.59-4.442-2.923c-1.299-1.352-2.375-3.092-3.193-5.177
				c-0.724-1.842-1.214-3.992-1.457-6.414h37.803c0.633,0,1.14-0.513,1.14-1.145v-2.256c0-4.404-0.59-8.395-1.766-11.87
				C47.741,7.431,46.021,4.428,43.8,1.998z M12.132,16.753c0.36-1.942,0.879-3.675,1.561-5.164c0.809-1.774,1.813-3.256,2.983-4.41
				c1.151-1.126,2.458-1.974,3.894-2.531c1.445-0.554,3.025-0.827,4.684-0.827c3.608,0,6.518,1.119,8.888,3.43
				c2.158,2.108,3.653,5.302,4.464,9.5L12.132,16.753L12.132,16.753L12.132,16.753z"/>
			<path fill="#FFFFFF" d="M-6.685-24.135h-14.289c-0.496,0-0.937,0.319-1.086,0.793L-40.299,33.14l-18.933-56.598
				c-0.158-0.468-0.597-0.778-1.088-0.778h-1.455c-0.158,0-0.317,0.032-0.462,0.097l-11.958,5.3
				c-0.41,0.184-0.675,0.599-0.675,1.047l0.143,66.567c0,0.635,0.519,1.139,1.146,1.139h8.697c0.63,0,1.144-0.508,1.144-1.139
				V-5.209l18.108,54.34c0.153,0.471,0.589,0.783,1.082,0.783h8.549c0.488,0,0.926-0.314,1.086-0.787L-16.962-5.16v53.936
				c0,0.631,0.508,1.139,1.146,1.139h9.13c0.633,0,1.146-0.508,1.146-1.139v-71.764C-5.538-23.622-6.051-24.135-6.685-24.135z"/>
			<path fill="#FFFFFF" d="M241.429-24.135h-9.289c-0.631,0-1.142,0.513-1.142,1.146v71.764c0,0.631,0.511,1.139,1.142,1.139h9.289
				c0.628,0,1.142-0.508,1.142-1.139v-71.764C242.568-23.622,242.057-24.135,241.429-24.135z"/>
			<path fill="#FFFFFF" d="M219.367-1.42c-1.947-1.556-4.327-2.64-7.099-3.215c-2.67-0.562-5.73-0.849-9.101-0.849
				c-14.777,0-22.656,5.731-23.416,17.038c-0.022,0.312,0.087,0.622,0.305,0.852c0.214,0.232,0.518,0.366,0.837,0.366h9.276
				c0.62,0,1.121-0.49,1.147-1.101c0.179-5.281,3.905-7.85,11.388-7.85c2.768,0,4.926,0.259,6.428,0.771
				c1.386,0.465,2.409,1.183,3.054,2.132c0.688,1,1.122,2.32,1.3,3.913c0.167,1.502,0.262,3.2,0.292,5.061h-3.324
				c-21.448,0-32.331,6.5-32.331,19.333c0,2.395,0.482,4.604,1.424,6.566c0.94,1.973,2.271,3.689,3.963,5.105
				c1.66,1.39,3.673,2.488,5.972,3.262c2.285,0.767,4.768,1.15,7.388,1.15c6.622,0,12.3-1.733,16.916-5.147v2.804
				c0,0.635,0.519,1.143,1.143,1.143h9.284c0.634,0,1.145-0.508,1.145-1.143V15.181c0-4.052-0.507-7.459-1.506-10.127
				C222.831,2.337,221.319,0.159,219.367-1.42z M213.787,34.772c-0.717,0.996-1.576,1.896-2.56,2.688
				c-1.078,0.881-2.271,1.647-3.547,2.292c-1.255,0.641-2.596,1.118-3.955,1.431c-1.37,0.318-2.78,0.479-4.192,0.479
				c-3.144,0-5.597-0.637-7.295-1.889c-1.606-1.187-2.389-2.881-2.389-5.186c0-6.646,6.152-9.882,18.812-9.882h5.126V34.772
				L213.787,34.772L213.787,34.772z"/>
			<path fill="#FFFFFF" d="M141.704,8.571c1.189-1.546,2.629-2.735,4.289-3.532c2.739-1.341,6.342-1.615,9.531-0.637
				c1.244,0.376,2.34,0.934,3.263,1.658c0.92,0.719,1.67,1.621,2.238,2.683c0.578,1.054,0.912,2.299,1.005,3.704
				c0.038,0.599,0.535,1.067,1.142,1.067h9.278c0.018,0.002,0.033,0,0.043,0c0.637,0,1.144-0.512,1.144-1.144
				c0-0.159-0.034-0.316-0.096-0.456c-0.341-2.573-1.08-4.953-2.209-7.08c-1.175-2.185-2.751-4.072-4.684-5.6
				c-1.898-1.499-4.157-2.673-6.705-3.492c-2.528-0.811-5.352-1.228-8.41-1.228c-3.686,0-7.121,0.616-10.216,1.834
				c-3.119,1.218-5.838,3.049-8.089,5.448c-2.24,2.389-3.989,5.387-5.214,8.922c-1.194,3.502-1.801,7.56-1.801,12.055
				c0,4.557,0.606,8.63,1.803,12.108c1.12,3.207,2.792,5.941,5.264,8.599c0.1,0.111,0.231,0.196,0.364,0.262
				c4.071,1.823,7.055,3.44,10.316,6.282c0.136,0.121,0.299,0.21,0.473,0.251c2.215,0.556,4.605,0.841,7.1,0.841
				c2.805,0,5.508-0.382,8.04-1.15c2.504-0.753,4.774-1.897,6.741-3.375c1.979-1.492,3.629-3.387,4.877-5.619
				c1.266-2.219,2.063-4.824,2.393-7.74c0.035-0.318-0.068-0.646-0.286-0.889c-0.22-0.242-0.528-0.38-0.854-0.38h-9.278
				c-0.608,0-1.104,0.469-1.143,1.079c-0.092,1.52-0.43,2.837-1.004,3.906c-0.57,1.063-1.314,1.955-2.218,2.645
				c-0.924,0.698-2.017,1.228-3.243,1.555c-1.265,0.342-2.6,0.516-3.967,0.516c-4.269,0-7.544-1.533-10.021-4.685
				c-2.51-3.188-3.784-7.967-3.784-14.199c0-3.103,0.356-5.889,1.05-8.284C139.536,12.136,140.493,10.138,141.704,8.571z"/>
			<path fill="#FFFFFF" d="M119.835-4.434h-9.284c-0.638,0-1.146,0.511-1.146,1.145v43.967c0,0.348,0.156,0.679,0.435,0.898
				c0.207,0.161,0.455,0.245,0.711,0.245c0.085,0,0.181-0.013,0.27-0.036c2.993-0.724,5.097-0.945,9.015-0.945
				c0.636,0,1.148-0.51,1.148-1.146V-3.29C120.983-3.923,120.471-4.434,119.835-4.434z"/>
			<path fill="#FFFFFF" d="M103.518-23.856c0-0.626-0.514-1.144-1.14-1.144h-8.938c-0.626,0-1.144,0.517-1.144,1.144v21.812
				c-3.246-3.792-8.28-5.979-14.053-5.979c-5.541,0-10.84,2.266-14.922,6.378c-5.548,5.57-8.569,14.087-8.519,23.96
				c0,16.471,9.25,28.893,21.513,28.893c0.351,0,0.707-0.009,1.064-0.029l1.297-0.064c4.536-0.198,11.009-0.475,14.683-6.939
				l0.275,2.87c0.052,0.588,0.546,1.034,1.139,1.034h2.463c0.213,0,0.417-0.057,0.596-0.166c1.086-0.658,4.129-2.462,5.211-2.891
				c0.462-0.184,0.748-0.633,0.728-1.116c-0.13-2.438-0.253-5.444-0.253-9.192V-23.856L103.518-23.856z M92.041,33.716
				c-0.432,0.751-1.505,2.057-3.06,3.442c-3.059,2.99-6.341,4.502-9.753,4.502c-3.539,0-6.24-1.445-8.273-4.438
				c-0.154-0.227-0.296-0.471-0.439-0.715c-0.022-0.045-0.131-0.23-0.169-0.271c-2.651-3.426-4.114-8.534-4.114-14.375
				c0-11.851,5.525-19.814,13.751-19.814c3.911,0,7.359,1.876,9.726,5.32c1.28,1.764,1.72,2.428,2.332,3.796V33.716L92.041,33.716
				L92.041,33.716z"/>
		</g>
		<g>
			<polygon fill="#80CCDF" points="-11.833,80.705 10.628,80.705 10.628,77.217 -11.833,77.217 -11.833,61.018 13.809,61.018 
				13.809,57.522 -15.305,57.522 -15.305,101.198 14.343,101.198 14.343,97.711 -11.833,97.711 			"/>
			<polygon fill="#80CCDF" points="49.752,57.522 34.286,76.798 18.95,57.522 14.347,57.522 31.899,79.595 15.141,101.054 
				19.585,101.054 34.286,82.39 49.126,101.054 53.528,101.054 36.454,79.593 54.16,57.522 			"/>
			<path fill="#80CCDF" d="M73.43,57.522H55.228v43.531h3.472V84.979h14.394c7.115,0,12.693-5.907,12.693-13.451
				C85.786,64.79,81.06,57.522,73.43,57.522z M73.395,81.486H58.699V61.014h14.278c5.227,0,9.481,4.444,9.481,9.907
				C82.459,76.113,79.068,81.486,73.395,81.486z"/>
			<path fill="#80CCDF" d="M119.646,45.04c-17.328,0-31.972,14.779-31.972,32.274c0,8,3.243,16.025,8.896,22.019
				c6.008,6.367,14.198,9.967,23.065,10.141h0.008h0.008c17.624-0.359,31.964-14.785,31.964-32.159
				C151.619,61.729,138.771,45.04,119.646,45.04z M119.646,106.295c-17.147,0-28.016-14.744-28.613-28.98
				c0-17.407,14.798-29.095,28.613-29.095c15.51,0,28.613,13.323,28.613,29.095C148.26,91.312,136.766,106.295,119.646,106.295z"/>
		</g>
	</g>
</g>
</svg>
