<svg xmlns="http://www.w3.org/2000/svg" viewBox="0 0 566.01 329.12"><defs><style>.cls-1,.cls-10{fill:none;}.cls-1{stroke:#94d8ec;stroke-width:3px;}.cls-2,.cls-3,.cls-6,.cls-7{fill:#fff;}.cls-3{font-size:100.58px;}.cls-3,.cls-4,.cls-5{font-family:NexaBold, Nexa Bold;}.cls-4{font-size:86.49px;fill:red;}.cls-5{font-size:71.35px;fill:#fffdfd;}.cls-6{font-size:71.35px;}.cls-6,.cls-7{font-family:SitkaBanner, Sitka;}.cls-7{font-size:71.5px;}.cls-8{letter-spacing:0em;}.cls-9{fill:#5fdfca;}.cls-10,.cls-9{stroke:#5fdfca;stroke-width:5px;}.cls-11{letter-spacing:-0.02em;}</style></defs><title>Medi Nepal</title><g id="Layer_2" data-name="Layer 2"><g id="Layer_2-2" data-name="Layer 2"><polygon class="cls-1" points="523.26 218.88 522.74 216.52 522.52 213.96 522.28 212.93 521.77 212.01 520.44 210.2 519.93 209.28 519.04 207.2 517.85 205.26 516.6 203.7 515.83 203.05 514.91 202.67 513.84 202.06 512.76 199.93 511.83 199.12 511.54 198.66 511.45 198.18 511.54 197.68 512.41 195.95 512.64 191.78 513.55 189.97 515.01 187.04 515.37 185.59 515.22 184.91 514.48 183.76 514.22 183.11 514.15 182.29 514.3 181.62 514.81 180.26 515.04 179.87 515.35 179.57 515.63 179.23 515.76 178.71 515.65 178.46 515.11 177.96 514.96 177.71 514.67 176.54 514.6 175.97 514.67 175.34 516.18 172.34 519.87 166.73 521.3 161.76 522.16 160.24 522.77 158.73 522.47 156.28 523.19 155.19 523.06 154.49 522.59 154.14 521.78 153.87 520.3 153.56 520.28 153.56 518.97 153.3 516.42 152.04 515.06 151.63 514.35 151.71 512.79 152.27 512 152.4 511.28 152.27 510.02 151.7 509.39 151.52 504.72 151.32 503.56 150.75 502.92 150.85 502.23 151.78 501.3 153.41 500.18 154.84 498.79 155.97 497.03 156.73 495.46 156.85 494.17 156.4 493.05 156 491.63 155.78 490.74 156.02 488.89 156.91 487.9 156.89 487.41 156.54 487.1 156.05 486.87 155.57 486.59 155.29 485.42 155 484.4 155.09 482.09 155.6 476.8 156.93 475.75 156.95 475.75 156.05 476.44 155.06 476.71 154.25 475.44 153.9 473.77 154.43 472.47 155.49 471.07 156.23 467.64 155.42 464.62 155.73 463.06 155.65 460.73 154.53 457.48 150.74 455.61 148.97 454.13 148.18 453.13 148.12 452.74 148.22 452.02 148.41 450.25 148.67 448.73 148.55 447.43 148.02 446.48 147.04 445.96 145.6 445.96 145.59 444.31 144.41 440.12 144.57 438.32 144.01 437.87 143.21 438.09 141.44 437.84 140.72 437.01 140.04 435.92 139.42 434.76 139 433.69 138.93 432.94 139.28 431.62 140.32 430.74 140.52 429.81 140.14 429 139.46 428.19 138.95 427.24 139.09 426.68 139.76 426.51 140.64 426.47 141.59 426.33 142.48 425.89 143.28 425.38 143.88 425.02 144.56 425.04 145.6 425.05 146.99 425.05 147 424.68 148.12 423.87 148.99 422.6 149.6 420.41 150.59 419.61 150.65 418.45 150.23 416.44 148.75 415.91 148.5 415.35 148.57 414.88 148.81 414.39 148.98 413.81 148.88 413.24 148.51 411.85 146.93 410.86 146.26 409.72 146.02 408.5 145.91 407.3 145.6 407.28 145.59 407.28 145.59 407.26 145.59 406.39 145.14 405.98 144.42 405.57 142.7 405.13 142.02 404.69 141.58 404.55 141.02 405.06 140.01 405.44 138.82 405.38 137.35 404.78 136.19 403.59 135.98 398.4 140.72 398.49 141.32 399.17 142.22 399.36 142.68 399.31 143 399.04 144 399.04 144.5 398.93 144.88 399.02 145.22 399.62 145.59 399.63 145.59 399.63 145.59 399.63 145.6 400.15 146.15 400.14 146.63 399.97 147.14 400 147.8 400.3 148.25 400.69 148.61 400.99 149.02 401.02 149.65 400.69 149.88 398.81 151.55 397.98 151.89 397.58 151.95 397.37 151.98 395.88 151.84 393.14 152.12 392.09 151.75 391.41 150.28 391.45 149.05 391.71 147.86 391.73 146.7 390.98 145.6 388.9 143.96 388.26 143.15 387.8 141.77 387.76 141.05 387.84 140.48 387.72 139.92 386.68 138.69 386.4 137.38 386.18 136.76 385.29 135.84 384.02 135.15 381.39 134.1 379.83 133.2 378.52 132.11 377.4 130.82 376.45 129.28 376.35 126.65 376.05 125.35 375.24 125.49 375.05 125.98 375.06 126.54 374.99 127.07 374.58 127.42 373.31 127.82 372.84 128.16 371.23 130.35 370.46 130.37 369.66 129.63 368.46 128.91 367.17 128.61 365.8 128.46 364.43 128.48 363.13 128.69 361.4 127.92 360.5 127.62 359.53 127.66 358.7 128.11 357.3 129.47 356.4 129.84 355.37 129.75 354.75 129.31 354.21 128.79 353.43 128.47 352.74 128.57 351.08 129.24 350.27 129.41 349.3 129.35 348.15 129.13 347.07 128.74 345.15 127.19 344.02 127.39 342.8 127.92 341.34 127.91 340.03 127.2 339.61 126.33 339.7 125.58 339.92 123.79 339.93 122.63 339.44 119.38 339.8 118.79 341.35 117.97 341.7 117.17 341.71 116.06 341.8 115.71 342.16 115.28 343.19 114.9 343.62 114.61 343.97 114.07 344.16 113.58 344.82 110.6 344.41 109.9 341.48 109.08 339.3 107.72 338.1 107.3 336.74 107.57 336.33 107.91 335.94 108.42 335.37 109.45 334.98 109.93 334.48 110.15 333.92 110.28 332.16 111.13 331.8 111.49 331.06 112.89 330.58 113.26 329.99 113.42 329.35 113.35 328.37 113.06 327.66 112.95 324.35 113.14 323.64 113.06 322.88 112.78 321.85 112.05 320.29 110.47 319.16 109.95 316.44 109.83 315.67 109.34 315.97 106.58 315.27 106.09 314.14 105.89 312.98 105.51 312.57 105.08 312 104.03 311.47 103.76 308.17 103.27 306.99 102.9 306.02 102.38 305 102 303.65 102.03 302.16 101.64 301.39 100.48 300.49 97.75 299.99 97.21 298.73 96.26 297.75 94.8 297.14 94.33 296.4 94.06 292.36 93.32 289.33 91.75 288.76 90.93 287.65 89.33 289.11 84.26 288.47 83.5 287.15 83.11 285.79 82.39 285.44 80.52 285.24 79.95 284.87 79.53 283.55 78.39 283.21 77.25 283.77 76.28 284.58 75.34 284.96 74.35 284.6 73.52 283.79 73.42 282.84 73.54 282.03 73.37 281.61 72.73 281.25 71.11 280.68 70.54 279.63 70.52 278.5 70.92 277.44 71.08 276.63 70.36 276.09 69.73 275.4 69.6 274.64 69.78 273.91 70.12 273.75 69.33 273.4 68.87 272.85 68.61 272.11 68.45 271.36 68.45 270.26 68.59 268.41 69.03 268.06 69.35 267.55 70.14 267.12 70.33 265.7 70.7 263.05 71.84 261.7 71.99 260.2 71.86 258.67 71.91 257.24 72.35 256.02 73.39 255.58 74.37 255.32 75.41 254.89 76.25 254.83 76.27 253.9 76.6 253.01 76.56 250.6 76.16 249.89 75.79 249.26 75.32 247.75 75.15 247.03 74.89 246.62 74.41 246.47 73.8 246.35 72.52 245.78 70.28 245.21 69.38 244.17 68.74 242.53 68.16 241.87 67.65 241.34 65.97 240.72 65.53 239.96 65.2 239.25 64.62 238.96 63.79 239.03 63.06 238.9 62.4 237.1 61.1 236.99 60.35 237.14 59.47 236.99 58.4 235.38 56.96 231.57 57.67 230.57 56.38 230.66 55.67 230.97 55.28 231.32 54.95 231.53 54.45 231.38 53.56 230.88 52.78 229.5 51.55 229.07 51.32 228.06 51.02 227.6 50.77 227.43 50.5 227.22 49.71 227 49.4 226.19 48.85 225.51 48.62 224.79 48.59 223.4 48.73 221.84 49.07 221.42 49.22 221.12 49.86 220.95 50.69 220.6 51.33 219.73 51.38 219.11 50.95 218.29 49.51 217.82 48.9 214.43 46.31 213.74 46.2 212.42 46.37 211.81 46.3 211.32 45.97 210.46 45.09 209.9 44.86 208.73 45.29 207.38 46.18 206.14 46.56 205.3 45.48 204.9 44.76 204.28 44.41 203.56 44.2 202.84 43.87 202.19 43.33 201.09 41.83 197.49 39.37 196.94 38.36 197.11 37.64 197.38 37.06 197.37 36.57 196.67 36.17 196.05 36.14 194.83 36.48 194.21 36.5 193.17 35.85 188.61 30.89 187.57 30.35 184.69 29.57 183.57 29.06 182.49 28.36 181.54 27.54 180.76 26.64 179.84 26.14 178.94 26.14 178.01 26.25 177.04 26.12 176.56 25.78 175.84 24.8 175.35 24.43 174.01 24.14 172.8 24.13 171.59 23.96 168.92 22.49 167.81 22.67 166.75 23.02 165.53 22.86 164.98 22.19 164.43 20.99 164.04 19.73 163.97 18.93 165.35 16.68 165.64 15.54 164.73 14.79 163.18 14.3 162.08 13.63 161.44 12.6 161.27 11.02 161.93 7.61 161.66 6.69 160.74 6.27 159.34 6.15 156.83 6.29 156.27 6.45 155.7 6.71 155.12 6.88 154.54 6.8 154.13 6.48 153.42 5.61 152.88 5.27 151.71 5.07 149.67 5.21 147.13 4.25 145.84 4.43 144.58 4.83 143.24 5.03 141.95 4.74 134.72 1.88 133.42 1.52 132.09 1.68 131.7 2.05 131.52 2.57 131.2 3.07 130.41 3.39 129.27 3.56 128.83 3.81 128.54 4.29 127.87 6.58 127.19 6.79 125.64 6.58 124.43 6.02 122.25 4.17 121.13 3.77 119.95 4.09 119.79 4.85 119.93 5.79 119.63 6.62 119 7.47 118.79 8.42 118.85 10.5 118.94 11.02 119.32 11.98 119.38 12.49 119.17 13.05 118.42 14.14 118.15 16 117.72 16.97 117.02 17.79 116.08 18.37 115.31 18.47 114.34 18.42 113.42 18.48 112.78 18.88 112.74 19.32 113.23 20.25 113.31 20.65 113.08 21.57 112.83 22.05 112.78 22.16 112.19 22.55 111.15 22.83 110.33 23.32 110.42 24.99 109.8 25.84 108.47 26.06 105.71 24.94 104.32 24.97 102.71 25.32 101.94 24.77 101.93 24.69 101.31 22.05 100.87 21.14 99.5 19.17 98.73 17.24 98.05 16.08 97.29 15.09 96.92 14.8 96.87 14.76 96.86 14.76 96.66 14.61 96.2 14.63 92.19 15.82 91.16 15.59 90.57 14.54 89.99 13.81 89.98 13.82 89.04 14.41 88.01 15.5 87.17 16.21 87.96 17.8 86.77 19.36 83.2 21.73 82.37 22.48 80.58 24.97 79.99 25.53 77.95 26.75 77.87 26.8 76.32 28.07 76.31 28.08 75.57 28.5 74.43 28.82 72.28 29.05 71.4 29.49 71.39 29.49 70.89 30.51 70.11 32.65 68.78 34.51 65.73 37.85 64.47 38.78 64.46 38.78 60.92 39.62 60.91 39.62 59.36 40.73 58.49 42.37 58.49 43.88 59.06 45.38 59.87 46.97 60.42 48.52 60.33 49.83 59.61 51.06 58.28 52.37 57.94 52.6 57.94 52.6 57.21 52.95 57.2 52.95 56.88 53.18 56.66 53.59 56.75 53.96 56.91 54.28 56.88 54.59 56.45 55.12 55.94 55.58 54.75 56.38 54.73 56.39 54.19 57 53.66 57.34 53.24 57.72 53.08 58.49 52.73 59.04 52.72 59.04 50.99 59.53 50.99 59.54 50.36 59.95 50.13 61.01 50.56 62.01 51.82 63.95 52.26 66.36 52.58 66.98 53.09 67.05 53.64 67.03 54.08 67.36 54.24 68.48 53.99 69.86 52.77 73.76 52.76 73.76 52.2 73.65 51.46 73.13 50.43 73.25 50.42 73.26 50.13 74.12 51.13 76.61 51.28 77.52 50.54 78.31 50.53 78.31 49.4 78.6 48.16 78.59 47.14 78.47 45.3 79.25 45.3 79.26 44.14 81.51 43.64 84.17 43.83 86.11 43.83 86.13 43.33 87.16 42.55 87.7 42.48 87.74 41.49 88.19 41.48 88.19 40.56 88.84 39.82 89.81 39.43 90.81 39.26 91.89 39.22 93.08 39.58 95.5 40.67 96.27 42.28 96.55 44.2 97.55 46.19 99.89 47.05 100.48 48.19 100.84 50.28 101.16 51.29 101.71 51.63 102.09 52.25 103.05 52.7 103.49 53.19 103.69 54.27 103.93 54.73 104.27 56.35 107.21 57.03 107.97 58.22 108.4 59.37 108.25 60.51 107.98 61.7 108.03 62.78 108.6 65.3 111.28 66.46 111.83 66.47 111.83 66.76 111.05 66.26 107.27 66.42 106.24 67.01 105.43 67.01 105.43 68.2 104.84 69.21 104.87 70.47 104.9 70.67 105.26 70.57 105.77 70.54 106.33 70.94 106.8 71.99 107.28 73.02 107.59 75.22 107.94 75.98 108.43 77.16 110.41 77.77 111.1 78.8 111.53 80.66 112 81.64 112.58 83.91 114.67 84.91 115.21 86.01 115.4 88.45 115.4 89.3 115.73 89.79 116.63 89.87 117.52 90.16 118.36 91.27 119.07 92.22 119.34 93.4 119.55 94.55 119.58 95.47 119.3 96.17 119.66 96.38 120.29 96.49 121.03 96.92 121.68 99.71 122.15 105.6 123.15 106.99 123.8 108.22 125.18 109.43 128.72 110.25 130.37 113.7 133.9 114.51 135.33 114.49 135.34 113.6 135.66 113.6 135.66 113.36 136.15 113.74 136.6 114.71 136.81 114.52 137.66 115.16 137.93 116.16 137.78 117.01 137.4 117.02 137.4 117.56 136.7 117.81 135.96 118.18 135.43 118.18 135.42 119.1 135.3 120.45 135.73 121.72 136.54 122.79 137.57 123.56 138.66 123.85 139.52 123.9 140.14 124.16 140.69 125.06 141.34 130.32 143.74 131.53 144.5 132.3 145.59 132.3 145.6 132.31 145.6 132.31 145.6 133.48 146.41 136.48 147.03 137.88 147.48 139.16 148.41 141.52 150.66 144.5 152.18 146.14 153.28 147.8 154.16 149.43 154.27 149.44 154.27 150.8 153.43 153.19 150.92 153.19 150.92 154.95 150.23 158 150.5 159.38 150.91 159.45 150.93 160.65 151.84 161.75 152.88 162.78 153.41 165.36 154.31 172.47 159.54 177.07 161.59 180.29 164.49 182.6 165.13 187.69 164.61 195.18 162.89 196.48 163.35 196.81 163.47 197.85 164.96 198.57 167.25 199.14 171.69 199.78 173.95 201.12 175.33 208.5 175.77 209.99 176.2 212.72 177.57 216.49 178.4 223.76 178.35 225.95 179.13 228.91 181.35 229.64 182.1 230.33 183.23 230.7 184.06 231.3 184.66 232.67 185.09 233.99 185.03 234.03 185.01 235.16 184.45 236.16 183.54 237.44 181.84 237.85 181.09 237.94 180.37 237.03 179.28 236.91 178.59 237.03 177.86 237.34 177.28 237.34 177.28 238.88 176.79 244.47 176.83 250.99 177.61 255.32 179.06 263.57 183.01 266.3 183.89 266.69 184.24 266.7 184.25 267.12 183.69 267.46 183.46 267.47 183.46 268.04 183.26 268.05 183.25 268.07 182.77 267.84 182.17 267.69 181.61 265.99 179.91 265.49 178.96 265.48 178.96 266.64 178.54 269.39 178.37 270.77 178.01 271.54 178.24 273.91 178.62 275.81 178.55 275.81 178.55 277.07 177.79 280.08 174.47 280.08 174.47 281.27 174.03 282.32 174.24 282.58 175.33 283.13 175.84 283.78 176.18 285.21 176.69 285.76 177.23 286.4 178.68 286.95 178.84 288.76 178.58 289.57 179.13 290.15 180.24 291.27 181.66 292.56 182.4 309.67 185.21 311.43 186.3 312.93 188.29 313.9 190.46 314.46 192.68 314.6 194.96 314.27 197.31 313.68 198.6 312.84 199.97 312.32 201.32 312.66 202.6 313.43 203.09 320.59 204.83 321.26 204.83 322.07 204.27 322.07 204.27 323.05 203.96 323.97 204.14 324.61 205.07 324.62 205.08 326.01 205.84 328.98 206.73 330.31 207.41 331.18 208.55 331.52 209.79 332.02 210.86 333.39 211.5 334.12 211.69 334.89 211.78 335.9 212.24 335.83 213.15 335.93 213.95 337.45 214.07 340.79 212.89 342.14 212.76 344.47 213.63 344.68 215.43 344.69 217.49 346.43 219.12 351.92 220.42 352.82 220.4 354.88 219.84 355.45 219.46 355.84 219.19 355.97 219.05 356.8 218.16 357.77 217.36 357.78 217.35 358.82 217.41 359.9 217.7 360.98 217.4 363.13 216.36 365.74 215.1 370.43 213.44 371.08 213.63 375.74 215.96 376.58 216.88 377.04 218.9 376.6 223.31 377.24 225.4 378.07 226.33 381.29 228.62 381.82 228.74 382.42 228.52 382.99 228.38 383.47 228.76 383.58 229.26 383.59 229.78 383.7 230.25 384.12 230.58 385.08 230.44 385.93 229.99 386.36 229.76 390.43 226.61 390.63 226.5 391.46 226.07 392.87 225.93 394.98 225.33 396.8 225.87 400.9 228.17 401.2 228.41 401.57 228.55 402.92 228.47 403.04 228.49 403.39 228.53 404.3 228.77 404.69 228.97 404.97 229.25 405.34 229.49 405.96 229.6 406.38 229.48 407.71 228.72 409.96 228.03 411.23 227.85 412.24 228.03 412.67 228.44 412.69 229.28 413.11 229.7 413.54 229.75 414.83 229.6 415.35 229.6 417.13 230.18 420.77 231.95 422.6 232.61 423.75 232.86 424.69 233.31 425.5 233.97 426.3 234.82 426.31 234.82 427.5 235.47 431.51 237.12 435.67 239.38 436.76 239.6 436.76 239.6 437.38 239.16 437.77 238.46 438.22 237.87 438.22 237.86 439.04 237.75 441.14 238.5 441.69 238.59 443.2 238.2 443.2 238.2 444.65 237.33 445.8 236.15 446.42 234.82 446.42 234.81 448.27 233.83 449.95 233.3 452.16 232.62 452.16 232.61 452.51 232.37 452.91 232.1 452.92 232.1 454.71 230.41 455.57 229.78 455.58 229.77 456.25 229.75 456.44 230.88 456.47 231.88 457.15 234.81 457.15 234.82 457.17 234.82 457.77 236.56 458.76 238.56 460.12 240.18 461.83 240.81 465.01 240.49 466.82 239.98 467.44 240.54 467.85 241.46 468.39 242.24 469.17 242.67 471.67 243.67 472.47 243.81 472.48 243.81 473.2 243.24 474.31 241.1 475 240.25 476.64 239.36 476.65 239.35 478.57 238.86 480.55 238.76 482.36 239.07 486.63 241.25 488.71 241.77 490.88 240.9 490.91 240.88 492.39 239.87 493.03 239.43 493.04 239.42 494.32 239.02 495.29 239.5 496.08 240.13 497.08 240.24 497.93 239.85 497.94 239.84 498.37 238.93 498.76 237.68 498.77 237.67 499.54 237.4 500.54 237.73 501.64 238.24 502.66 238.23 502.67 238.23 504.47 236.86 504.48 236.86 505.54 236.62 505.59 236.85 507.02 237.91 507.17 237.88 507.45 238.36 507.83 239.4 508.21 239.97 509.05 240.68 510.97 241.71 511.83 242.46 513.67 242.26 513.68 242.26 515.91 240.13 517.7 237.25 518.17 234.82 518.17 234.81 517.99 234.08 518.02 233.47 518.46 232.21 519.33 229.64 522 224.93 522.99 222.31 523.24 221.13 523.33 220 523.26 218.88"/><path class="cls-2" d="M392.28,142.66c0-47.51-38.89-86.4-86.39-86.4a86.21,86.21,0,0,0-66.28,141.56l-67,67.05a7.85,7.85,0,0,0,0,11.11,7.86,7.86,0,0,0,11.11,0l67-67.05a84.8,84.8,0,0,0,55.17,20.12A86.54,86.54,0,0,0,392.28,142.66Zm-15.71,0A70.68,70.68,0,1,1,305.89,72,70.75,70.75,0,0,1,376.57,142.66Z"/><text class="cls-3" transform="translate(99.76 90.21) rotate(29.76)">M</text><text class="cls-4" transform="translate(290.33 168.3) rotate(24.05)">i</text><text class="cls-5" transform="translate(422.89 210.76) rotate(10.84)">N</text><text class="cls-6" transform="translate(4 307.45)">Medical </text><text class="cls-7" transform="translate(237.33 307.45)">iN<tspan class="cls-8" x="62.03" y="0">f</tspan><tspan x="81.51" y="0">o</tspan></text><line class="cls-9" y1="324.99" x2="530.67" y2="324.99"/><polyline class="cls-10" points="528.67 249.47 562.67 286.66 528.67 325.99"/><text class="cls-7" transform="translate(371.57 307.45)"><tspan class="cls-11">N</tspan><tspan x="43.69" y="0">epal</tspan></text></g></g></svg>